<svg height="58" viewBox="0 0 110 58" width="110" xmlns="http://www.w3.org/2000/svg" xmlns:xlink="http://www.w3.org/1999/xlink"><mask id="a" fill="#fff"><path d="m0 .21928654h23.2954486v9.34744186h-23.2954486z" fill="#fff" fill-rule="evenodd"/></mask><mask id="b" fill="#fff"><path d="m0 .21928654h19.0115716v9.34744186h-19.0115716z" fill="#fff" fill-rule="evenodd"/></mask><mask id="c" fill="#fff"><path d="m.01634037.21879h72.09561443v38.0472246h-72.09561443z" fill="#fff" fill-rule="evenodd"/></mask><g fill="#18234c" fill-rule="evenodd"><path d="m18.6362618.21928654h-13.97756034c-2.57225938 0-4.65918679 2.09382697-4.65918679 4.67372093 0 2.57989395 2.08692741 4.67372093 4.65918679 4.67372093h13.97756034c2.5722594 0 4.6591868-2.09382698 4.6591868-4.67372093 0-2.57989396-2.0869274-4.67372093-4.6591868-4.67372093" mask="url(#a)" transform="translate(.212281 4.678667)"/><path d="m14.258555.21928654h-9.50603342c-2.62406129 0-4.75301669 2.09382697-4.75301669 4.67372093 0 2.57989395 2.1289554 4.67372093 4.75301669 4.67372093h9.50603342c2.6240613 0 4.7530166-2.09382698 4.7530166-4.67372093 0-2.57989396-2.1289553-4.67372093-4.7530166-4.67372093" mask="url(#b)" transform="translate(.212281 24.882)"/><path d="m10.4953295 42.9586667h-5.70644849c-2.53143205 0-4.57660031 2.14368-4.57660031 4.785s2.04516826 4.785 4.57660031 4.785h5.70644849c2.5266648 0 4.5766003-2.14368 4.5766003-4.785s-2.0499355-4.785-4.5766003-4.785"/><path d="m109.232356 6.87801674c-.235056-.09593378-.498318-.0431702-.686363.13910398l-37.580701 35.05420448c-1.9227555 1.8275385-4.4002423 2.8492333-6.9811536 2.8780135-2.3505567.0671536-4.6023901-.9929147-6.1490564-2.8780135l-27.6613518-35.07339123c-.1645389-.19186757-.4231002-.24463115-.6440525-.13910399-.2397568.11032385-.4089969.33097155-.456008.59958615l-6.4499277 43.17020257c-.3572847 1.7939617.0799189 3.6646705 1.1846806 5.0701004 1.1047616 1.4102266 2.7595536 2.1968836 4.4848622 2.1441201h67.5455986c3.8737175-.1295106 7.1127846-3.1370348 7.7568376-7.1950338l5.932805-43.17020252c.04231-.24942783-.079919-.49405898-.29617-.59958614"/><path d="m27.9587678 36.9894646c.793036.816992 1.8692992 1.27655 2.9927668 1.27655 1.1234677 0 2.2044513-.459558 2.9974874-1.27655l37.4992742-33.719488c.4956475-.436348.741111-1.109438.6419815-1.777886-.2407431-1.336896-1.7088038-1.25334-2.1430854-1.25334h-67.21924283c-1.01017682-.134618-2.00147184.357434-2.51600115 1.25334-.30210896.570966-.25018398 1.262624.12745221 1.777886z" mask="url(#c)" transform="translate(33.115789 .425333)"/></g></svg>