<svg height="120" viewBox="0 0 120 120" width="120" xmlns="http://www.w3.org/2000/svg" xmlns:xlink="http://www.w3.org/1999/xlink"><mask id="a" fill="#fff"><path d="m0 0h120v120h-120z" fill="#fff" fill-rule="evenodd"/></mask><mask id="b" fill="#fff"><path d="m.25962612.75924208h93.35282338v66.79975562h-93.35282338z" fill="#fff" fill-rule="evenodd"/></mask><mask id="c" fill="#fff"><path d="m0 .08528628h115.639554v79.97335192h-115.639554z" fill="#fff" fill-rule="evenodd"/></mask><g fill="none" fill-rule="evenodd" mask="url(#a)"><g fill="#18234c" transform="translate(1.860465)"><path d="m.31112948 50.0751478c.28641581 2.4895587 2.33298695 4.3709022 4.77012511 4.3709022.18226461.0103087.36452922.0103087.55200138 0 1.27064469-.154631 2.42151548-.8143898 3.21827219-1.8401086.79154915-1.0308731 1.15087084-2.340082 1.00505911-3.6441365-.14581168-1.3555982-.22392508-2.7111964-.22392508-4.0771033 0-13.5559818 7.60824541-25.8903789 19.52835061-31.6529598 11.9148977-5.76773522 25.9961404-3.91731793 36.1352601 4.7368621 1.3175127 1.1288061 3.1245361 1.4483767 4.7388797.8401616 1.6039286-.6185239 2.7808372-2.0669007 3.0724605-3.8090763.2864159-1.7421756-.3436989-3.510123-1.6664192-4.6440835-13.7115059-11.72102757-32.9690635-13.67453217-48.6334045-4.92757357-15.66434098 8.74180427-24.57968399 26.42643297-22.5122826 44.64711567z"/><path d="m72.0774779 31.1756587c-1.3529552-1.4084292-3.1917205-2.2035941-5.1140661-2.1983969-.8305786 0-1.6507097.1455204-2.4342745.4365611-.4335725.1559147-.9246064.0415772-1.2537036-.2962379l-6.7543283-6.9849774c-.423125-.4417582-.4649151-1.1381771-.1044753-1.637104 2.9514273-4.0174015 5.2394364-8.5233355 6.7543283-13.32550748.7417746-2.58818358-.6425231-5.32188752-3.1238116-6.16382676-2.4812884-.83674208-5.1558561.51971558-6.0386724 3.06112476-3.0663501 9.63552678-9.9826151 17.44165478-18.9988337 21.42787328-9.0109948 3.9914157-19.2495744 3.7731351-28.09863253-.5924757-2.36114182-1.0030511-5.07227591.0727601-6.17449035 2.4582546-1.1074382 2.3802974-.2246219 5.2387331 2.01114956 6.5224306 14.80415032 7.3123981 32.31943472 5.4518164 45.38929502-4.8125663.4805864-.3845895 1.1544521-.332618 1.5828008.1039431l6.7491045 6.9901745c.3238735.3378152.4387963.8471364.2820834 1.299289-.935054 2.7181125-.2768596 5.7584486 1.6924998 7.806128l18.7063029 19.3697996c3.7611109 3.8926697 9.8676923 3.8926697 13.6392507-.0051972 3.7663346-3.8978668 3.7663346-10.2124111-.0052238-14.1050808z" mask="url(#b)" transform="translate(22.052927 52.436975)"/><path d="m113.2337.08528628h-19.2674258c-.9758962 0-1.8578558.60128218-2.2283832 1.53430625-.3705274.9278406-.1669983 2.00081828.5166509 2.7057698l5.526599 5.71218067c.2296227.233256.3548714.5442641.3548714.876006 0 .3265584-.1252487.6479333-.3548714.8811894l-31.7922959 32.9253827c-.4749013.4820624-1.2316122.4820624-1.7065135 0l-11.6063799-11.9945428c-3.7574611-3.8824168-9.8581167-3.8824168-13.6207965 0l-37.58504844 38.777517c-1.25248704 1.2543991-1.75348185 3.1048968-1.31511139 4.8413583.44358916 1.7416449 1.75870055 3.0997133 3.43912065 3.5506749 1.6856388.4561451 3.47565152-.0570182 4.69160768-1.3528849l36.7030888-37.9015111c.4749014-.4820624 1.2316123-.4820624 1.7065136 0l11.6220359 11.9945428c3.8096481 3.7580136 9.8059298 3.7580136 13.6207966 0l32.6742555-33.8065722c.469683-.4820624 1.226394-.4820624 1.701295 0l5.229133 5.4011727c.448808.4716955 1.064614.7360523 1.701295.7360523.313122 0 .631462-.067385.923709-.1917882.897616-.3887601 1.476891-1.2958668 1.471708-2.3014594v-19.9045135c0-1.3684353-1.075087-2.48288072-2.405854-2.48288072" mask="url(#c)"/></g></g></svg>