<svg height="110" viewBox="0 0 110 110" width="110" xmlns="http://www.w3.org/2000/svg" xmlns:xlink="http://www.w3.org/1999/xlink"><mask id="a" fill="#fff"><path d="m0 .832741h110v109.090909h-110z" fill="#fff" fill-rule="evenodd"/></mask><mask id="b" fill="#fff"><path d="m.76548421.18815593h19.03312759v52.07738077h-19.03312759z" fill="#fff" fill-rule="evenodd"/></mask><mask id="c" fill="#fff"><path d="m.03426431.17176352h39.94976409v46.59553208h-39.94976409z" fill="#fff" fill-rule="evenodd"/></mask><mask id="d" fill="#fff"><path d="m0 .00173533h94.0914456v76.02026497h-94.0914456z" fill="#fff" fill-rule="evenodd"/></mask><g fill="none" fill-rule="evenodd" mask="url(#a)"><g fill="#18234c" transform="translate(7.333333 .916667)"><path d="m.76548421 3.44604105v36.62507485c.02547369 3.7326304 1.52842105 7.2953978 4.16494737 9.8694755 1.41803509 1.472146 3.34978947 2.3083946 5.36645612 2.3258878h.0382105c1.9275088.0086395 3.7785965-.779699 5.1414386-2.1778021 2.7214386-2.6350541 4.2838246-6.2849308 4.322075-10.1220923v-36.52054375c.0042057-.86238135-.3311978-1.69862994-.9213381-2.30403907-.5986316-.6097646-1.4052983-.95384605-2.2501755-.95384605h-12.68589469c-.84487719 0-1.65154386.34408145-2.24592983.95384605-.59863157.60540913-.92978947 1.44165772-.92978947 2.30403907zm6.36842105 4.3554614c0-.60540914.47126316-1.08886535 1.06140351-1.08886535h4.24561403c.5858947 0 1.0614035.48345621 1.0614035 1.08886535v14.08991765c0 .6054091-.4755088 1.0888653-1.0614035 1.0888653h-4.24561403c-.59014035 0-1.06140351-.4834562-1.06140351-1.0888653z" mask="url(#b)" transform="translate(82.5 50.416667)"/><path d="m.67361357 38.9461031c-.88639535 1.641107-.84840698 3.6265912.09708139 5.229434.9497093 1.6028428 2.66340698 2.5934591 4.52061628 2.5934591h29.43676746c1.8445465 0 3.5540232-.9821132 4.5037325-2.5722012.9497093-1.5900881 1.0045814-3.5670692.1392907-5.2039246l-9.7798953-19.3021383c-.0801977-.1488051-.1181861-.3188679-.1181861-.4846793v-13.74108173c-.0042209-2.92508176-2.355279-5.29320755-5.2635-5.29320755h-8.3996511c-2.904.00425157-5.2508372 2.36812579-5.2550582 5.29320755v13.70281763c0 .1700629-.0422093.3358742-.118186.4846792l-9.75034884 19.2596227zm14.06413953-13.8643773 1.3084884-2.5807044.0379883-.0765283c.5065117-.824805.7682093-1.7814088.7639884-2.7507673v-12.08722014c0-.59096855.4727442-1.06289308 1.0552326-1.06289308h4.1998256c.5867093 0 1.0552325.47192453 1.0552325 1.06289308v12.10422644c-.0126628.8800754.2068256 1.7516478.6373605 2.5169308l.0422093.0850314 1.4224535 2.8102893c.1688372.3231195.1519535.7227673-.0422093 1.0331321-.1899419.3188679-.5318372.5101887-.8948372.5101887h-8.6402442c-.3714419 0-.7133372-.1913208-.9075-.5101887s-.2110465-.7227673-.0379884-1.0543899z" mask="url(#c)" transform="translate(37.583333 55.916667)"/><path d="m-.00171667 63.0547816c.00858334 7.1538788 5.74654167 12.958542 12.82779167 12.9672187h25.6641667c2.2187916-.1865475 3.9311666-2.0650372 3.9311666-4.3252985 0-2.2472463-1.712375-4.1300743-3.9311666-4.3209601h-25.6641667c-2.3647083 0-4.29166667-1.939226-4.29166667-4.3383133v-39.968881c0-.5943489.48495834-1.0845783 1.07291667-1.0845783h74.8466667c.28325 0 .5579166.1171345.7553333.3166969.2017083.2039007.3175833.4858911.3175833.7678814v18.3727571c-.141625 1.6312058.64375 3.2016753 2.0256667 4.056323s3.1200417.8546477 4.4976667 0c1.3819166-.8546477 2.163-2.4251172 2.0256666-4.056323v-28.4680122c-.0042916-7.15821708-5.74225-12.96288035-12.8235-12.97155697h-68.4263333c-7.08125.00867662-12.81920833 5.81333989-12.82779167 12.97155697zm37.42333337-54.40678776c1.7724583 0 3.2101666 1.45333496 3.2101666 3.24505836 0 1.7917235-1.4377083 3.2407201-3.2101666 3.2407201-1.7724584 0-3.210207-1.4489966-3.210207-3.2407201-.0042514-.858986.3347903-1.6919422.9356236-2.29496773.6008334-.61170218 1.4205417-.95009063 2.2745834-.95009063zm-10.6905417 0c1.7724583 0 3.2101667 1.45333496 3.2101667 3.24505836 0 1.7917235-1.4377084 3.2407201-3.2101667 3.2407201-1.77675 0-3.2144583-1.4489966-3.2144583-3.2407201 0-.858986.3390416-1.6919422.939875-2.29496773.605125-.61170218 1.4205416-.95009063 2.2745833-.95009063zm-10.6948333 0c1.7724583 0 3.2101666 1.45333496 3.2101666 3.24505836 0 1.7917235-1.4377083 3.2407201-3.2101666 3.2407201-1.7724584 0-3.2101667-1.4489966-3.2101667-3.2407201 0-.858986.3390417-1.6919422.939875-2.29496773.605125-.61170218 1.4205417-.95009063 2.2702917-.95009063z" mask="url(#d)"/><path d="m46.75 48.1228777c-.0042438-1.0526811-.7808642-1.9440642-1.8206019-2.0926281l-1.1118827-.1570532c-2.7839506-.4117341-4.9652777-2.6062345-5.3684413-5.3865009l-.1570216-1.1205959c-.1697531-1.0272129-1.056713-1.7827663-2.0964506-1.7827663-1.0397377 0-1.9266976.7555534-2.0922068 1.7827663l-.1655093 1.1248406c-.4031636 2.7802664-2.5929784 4.9747668-5.376929 5.3822562l-1.1161266.1570532c-1.0270061.1655426-1.7781635 1.0526811-1.7781635 2.0926281 0 1.0441916.7511574 1.9313301 1.7781635 2.0968727l1.1246142.1612979c2.7839507.4074894 4.9737655 2.5977451 5.3769291 5.3865009l.1612654 1.1163512c.1697531 1.0314576 1.056713 1.7827663 2.0964506 1.7827663 1.0397377 0 1.9266975-.7513087 2.0964506-1.7827663l.1570216-1.1205959c.4074074-2.7887558 2.5972223-4.9747668 5.3811729-5.3822562l1.1161265-.1612979c1.0354938-.1612979 1.7951389-1.0526811 1.7951389-2.0968727"/><path d="m79.75 37.125c-.0042421-1.0495116-.7763078-1.9382109-1.811385-2.0905593l-1.1284037-.1608123c-2.7828303-.4062625-4.9675218-2.5814599-5.3747653-5.3575873l-.1527163-1.117222c-.1484742-1.0368159-1.0393192-1.8112539-2.0913648-1.8154858-1.0478035.0042319-1.9386486.7702061-2.0913649 1.8112539l-.1654427 1.117222c-.4030013 2.7803593-2.5919349 4.9640205-5.3790073 5.3660511l-1.1199196.1608123c-1.0223507.1735079-1.7689637 1.0537434-1.7689637 2.0863274s.746613 1.9128195 1.7689637 2.0863274l1.1156774.1608123c2.7870725.4020306 4.9802482 2.5941556 5.3832495 5.370283l.1612006 1.117222c.1527163 1.0368159 1.0435613 1.8027901 2.0913648 1.807022 1.0520456-.0042319 1.9428907-.774438 2.0913649-1.8112539l.1527163-1.1129901c.4030013-2.7761274 2.5876928-4.9682524 5.3790074-5.3745149l1.1241616-.1608123c1.0350771-.1523484 1.8071429-1.0368158 1.8156271-2.0820955"/></g></g></svg>