<?xml version="1.0" encoding="UTF-8"?>
<svg width="115px" height="110px" viewBox="0 0 115 110" version="1.1" xmlns="http://www.w3.org/2000/svg" xmlns:xlink="http://www.w3.org/1999/xlink">
    <!-- Generator: Sketch 59.1 (86144) - https://sketch.com -->
    <title>icn_rep_management</title>
    <desc>Created with Sketch.</desc>
    <g id="Page-1" stroke="none" stroke-width="1" fill="none" fill-rule="evenodd">
        <g id="What-We-Do" transform="translate(-903.000000, -2859.000000)" fill="#18234C" fill-rule="nonzero">
            <g id="Group-9" transform="translate(106.000000, 2835.000000)">
                <g id="Group-6">
                    <g id="Group-5">
                        <path d="M911.634487,65.533243 C910.763712,62.854273 908.171556,61.013632 904.521843,60.4830995 L874.774314,56.159917 L861.469786,29.2044803 C859.837851,25.8976403 857.286033,24 854.469388,24 C851.652742,24 849.100925,25.8976403 847.468989,29.2053571 L834.166215,56.159917 L804.417809,60.4830995 C800.767219,61.013632 798.174187,62.854273 797.304289,65.533243 C796.434391,68.2122129 797.449856,71.2252871 800.091119,73.7990274 L821.617586,94.7809311 L816.534997,124.4092 C815.885204,128.198342 816.992746,130.46867 818.036272,131.706872 C819.260443,133.15904 821.045839,133.958785 823.063616,133.958785 C824.581553,133.958785 826.19595,133.51419 827.862962,132.638154 L854.469388,118.65051 L881.077567,132.639031 C882.743702,133.515067 884.358099,133.958785 885.876036,133.958785 C887.893814,133.958785 889.680086,133.15904 890.904257,131.706872 C891.946907,130.469547 893.055325,128.198342 892.404656,124.4092 L887.322943,94.7809311 L908.848533,73.7990274 C911.488919,71.2252871 912.504385,68.2122129 911.634487,65.533243 Z" id="icn_rep_management"></path>
                    </g>
                </g>
            </g>
        </g>
    </g>
</svg>