<svg width="109" height="84" viewBox="0 0 109 84" fill="none" xmlns="http://www.w3.org/2000/svg">
<g filter="url(#filter0_d_262_318)">
<path d="M19.0763 28.7343C20.7694 28.3767 22.4624 27.9296 24.1554 27.7508C36.8532 26.3201 48.6198 35.8874 50.2282 49.0312C52.0058 62.9798 43.2021 75.5871 30.1657 77.6436C17.5526 79.6107 5.95531 71.1164 3.24646 57.4361C-0.98613 35.5298 5.6167 17.8258 22.2084 4.14554C24.5787 2.26785 26.8643 0.390162 29.9117 0.12192C31.1815 0.0325105 32.5359 0.121919 33.8057 0.300745C35.1601 0.568986 35.5834 1.64195 34.8215 2.89374C34.229 3.78788 33.4671 4.68202 32.6206 5.39733C25.6792 11.4775 21.5312 19.3459 19.161 28.3767C19.0763 28.4661 19.0763 28.6449 19.0763 28.7343Z" fill="#FFFF00"/>
<path d="M75.5389 28.5555C78.0785 28.2872 80.7027 27.6613 83.2422 27.6613C95.7707 27.5719 106.014 37.8545 106.945 51.2666C107.791 64.0527 98.8182 75.7659 86.6283 77.6436C74.0999 79.6107 62.5026 71.1164 59.7937 57.7938C55.3072 35.4403 62.164 17.4682 79.3483 3.69845C81.4646 1.99959 83.5809 0.390146 86.3744 0.121904C87.7288 0.0324876 89.0832 0.121896 90.4376 0.390138C91.6228 0.568971 92.046 1.55252 91.3688 2.62548C90.6916 3.69845 89.9297 4.68201 88.9986 5.39732C82.0571 11.4774 77.9092 19.3459 75.5389 28.3766C75.5389 28.4661 75.5389 28.6449 75.5389 28.5555Z" fill="#FFFF00"/>
</g>
<defs>
<filter id="filter0_d_262_318" x="0" y="0.0868378" width="109" height="83.8391" filterUnits="userSpaceOnUse" color-interpolation-filters="sRGB">
<feFlood flood-opacity="0" result="BackgroundImageFix"/>
<feColorMatrix in="SourceAlpha" type="matrix" values="0 0 0 0 0 0 0 0 0 0 0 0 0 0 0 0 0 0 127 0" result="hardAlpha"/>
<feOffset dy="4"/>
<feGaussianBlur stdDeviation="1"/>
<feComposite in2="hardAlpha" operator="out"/>
<feColorMatrix type="matrix" values="0 0 0 0 0 0 0 0 0 0 0 0 0 0 0 0 0 0 0.4 0"/>
<feBlend mode="normal" in2="BackgroundImageFix" result="effect1_dropShadow_262_318"/>
<feBlend mode="normal" in="SourceGraphic" in2="effect1_dropShadow_262_318" result="shape"/>
</filter>
</defs>
</svg>
