<?xml version="1.0" encoding="UTF-8"?>
<svg width="110px" height="84px" viewBox="0 0 110 84" version="1.1" xmlns="http://www.w3.org/2000/svg" xmlns:xlink="http://www.w3.org/1999/xlink">
    <!-- Generator: Sketch 59.1 (86144) - https://sketch.com -->
    <title>icn_email_marketing</title>
    <desc>Created with Sketch.</desc>
    <g id="Page-1" stroke="none" stroke-width="1" fill="none" fill-rule="evenodd">
        <g id="What-We-Do" transform="translate(-665.000000, -3884.000000)" fill="#18234C" fill-rule="nonzero">
            <g id="icn_email_marketing" transform="translate(665.000000, 3884.000000)">
                <path d="M100.180638,0 L9.81786352,0 C8.33458642,0 6.94595469,0.36610119 5.68965517,0.969533979 L54.7851207,50.2586207 L65.7890369,39.6416862 C65.7890369,39.6416862 65.7898934,39.6406113 65.7901075,39.6401814 C65.7903216,39.6397514 65.7911782,39.6393215 65.7911782,39.6393215 L104.310345,0.970393876 C103.053831,0.366531138 101.664343,0 100.180638,0 Z" id="Path"></path>
                <path d="M109.041526,5.68965517 L73.0172414,41.7238186 L109.040249,77.7586207 C109.637593,76.5096844 110,75.1291916 110,73.654608 L110,9.7921777 C110,8.31844568 109.638444,6.93816569 109.041526,5.68965517 Z" id="Path"></path>
                <path d="M0.959739922,5.68965517 C0.362402902,6.93858406 0,8.31906877 0,9.79364358 L0,73.6556967 C0,75.12942 0.361977297,76.5101176 0.958888712,77.7586207 L36.9827586,41.7246701 L0.959739922,5.68965517 Z" id="Path"></path>
                <path d="M68.0630953,46.4659428 L57.0576803,56.9769038 C56.43028,57.6004156 55.6084498,57.9121714 54.7868338,57.9121714 C53.9652178,57.9121714 53.1431735,57.6004156 52.5159873,56.9769038 L41.9388319,46.4655172 L5.68965517,82.4876847 C6.94616882,83.0854474 8.33565707,83.4482759 9.81936242,83.4482759 L100.182136,83.4482759 C101.665414,83.4482759 103.054045,83.085873 104.310345,82.4885359 L68.0630953,46.4659428 Z" id="Path"></path>
            </g>
        </g>
    </g>
</svg>