<?xml version="1.0" encoding="UTF-8"?>
<svg width="110px" height="110px" viewBox="0 0 110 110" version="1.1" xmlns="http://www.w3.org/2000/svg" xmlns:xlink="http://www.w3.org/1999/xlink">
    <!-- Generator: Sketch 59.1 (86144) - https://sketch.com -->
    <title>icn_crm</title>
    <desc>Created with Sketch.</desc>
    <g id="Page-1" stroke="none" stroke-width="1" fill="none" fill-rule="evenodd">
        <g id="What-We-Do" transform="translate(-415.000000, -3865.000000)" fill="#18234C" fill-rule="nonzero">
            <g id="Group-6" transform="translate(106.000000, 3833.000000)">
                <g id="icn_crm" transform="translate(309.000000, 32.000000)">
                    <path d="M101.429167,47.7583333 C101.245833,48.1708333 101.0625,48.5833333 100.833333,48.9958333 L100.833333,77.9166667 L9.16666667,77.9166667 L9.16666667,27.5 L56.2833333,27.5 C56.6041667,25.85 57.3375,24.2916667 58.3916667,22.9166667 C57.3375,21.5416667 56.6041667,19.9833333 56.2833333,18.3333333 L8.02083333,18.3333333 C3.62083333,18.3333333 0,21.9541667 0,26.3541667 L0,88.2291667 C0,92.6291667 3.62083333,96.25 8.02083333,96.25 L43.12,96.25 C42.5791667,98.54625 41.15375,102.2725 37.3358333,106.085833 C36.6804167,106.74125 36.4833333,107.726667 36.8408333,108.58375 C37.19375,109.440833 38.0325,110 38.9583333,110 L71.0416667,110 C71.9675,110 72.80625,109.440833 73.1591667,108.58375 C73.5120833,107.726667 73.315,106.74125 72.6641667,106.085833 C68.8554167,102.277083 67.38875,98.5508333 66.8204167,96.25 L101.979167,96.25 C106.379167,96.25 110,92.6291667 110,88.2291667 L110,45.5583333 C107.616667,47.3916667 104.5,48.2166667 101.429167,47.7583333 Z" id="Path"></path>
                    <path d="M73.3333333,55 C73.3333333,62.6083333 67.1916667,68.75 59.5833333,68.75 L29.7916667,68.75 C23.4666667,68.75 18.3333333,63.6166667 18.3333333,57.2916667 C18.3333333,51.5625 22.5958333,46.8416667 28.0958333,46.0166667 C30.0666667,38.0416667 37.2166667,32.0833333 45.8333333,32.0833333 C50.6458333,32.0833333 54.9083333,33.9166667 58.1625,37.0333333 L61.1416667,42.1666667 C63.2958333,45.8791667 67.2375,47.9875 71.3166667,47.8958333 C72.6,50.0041667 73.3333333,52.3875 73.3333333,55 Z" id="Path"></path>
                    <path d="M104.055417,25.06625 C104.1425,24.3558333 104.270833,23.6545833 104.270833,22.9166667 C104.270833,22.17875 104.1425,21.4775 104.055417,20.7670833 L108.185,17.64125 C109.10625,16.9445833 109.362917,15.6704167 108.785417,14.6666667 L105.0775,8.25 C104.5,7.25083333 103.267083,6.83375 102.20375,7.28291667 L97.4508333,9.28583333 C96.29125,8.40125 95.0583333,7.62208333 93.6970833,7.05375 L93.0645833,2.0075 C92.9179167,0.861666667 91.94625,0 90.79125,0 L83.38,0 C82.225,0 81.24875,0.861666667 81.1066667,2.0075 L80.4741667,7.05375 C79.1129167,7.62208333 77.8754167,8.40583333 76.7204167,9.28583333 L71.9675,7.28291667 C70.8995833,6.83375 69.6666667,7.24625 69.0891667,8.25 L65.3858333,14.6666667 C64.8083333,15.6658333 65.065,16.94 65.98625,17.64125 L70.1158333,20.7670833 C70.0241667,21.4775 69.8958333,22.17875 69.8958333,22.9166667 C69.8958333,23.6545833 70.0241667,24.3558333 70.11125,25.06625 L65.9816667,28.1920833 C65.0604167,28.88875 64.80375,30.1629167 65.38125,31.1666667 L69.0891667,37.5833333 C69.6666667,38.5825 70.8995833,38.9995833 71.9629167,38.5504167 L76.7158333,36.5429167 C77.8754167,37.4275 79.1083333,38.2066667 80.4695833,38.775 L81.1020833,43.82125 C81.24875,44.9716667 82.2204167,45.8333333 83.3754167,45.8333333 L90.7866667,45.8333333 C91.9416667,45.8333333 92.9179167,44.9716667 93.06,43.8258333 L93.6925,38.7795833 C95.05375,38.21125 96.29125,37.4275 97.44625,36.5475 L102.199167,38.5504167 C103.267083,38.9995833 104.5,38.5870833 105.0775,37.5833333 L108.780833,31.1666667 C109.358333,30.1675 109.101667,28.8933333 108.180417,28.1920833 L104.055417,25.06625 Z M87.0833333,32.0833333 C82.01875,32.0833333 77.9166667,27.98125 77.9166667,22.9166667 C77.9166667,17.8520833 82.01875,13.75 87.0833333,13.75 C92.1479167,13.75 96.25,17.8520833 96.25,22.9166667 C96.25,27.98125 92.1479167,32.0833333 87.0833333,32.0833333 Z" id="Shape"></path>
                </g>
            </g>
        </g>
    </g>
</svg>