<?xml version="1.0" encoding="UTF-8"?>
<svg width="101px" height="109px" viewBox="0 0 101 109" version="1.1" xmlns="http://www.w3.org/2000/svg" xmlns:xlink="http://www.w3.org/1999/xlink">
    <!-- Generator: Sketch 59.1 (86144) - https://sketch.com -->
    <title>icn_marketing_automation</title>
    <desc>Created with Sketch.</desc>
    <g id="Page-1" stroke="none" stroke-width="1" fill="none" fill-rule="evenodd">
        <g id="What-We-Do" transform="translate(-911.000000, -3865.000000)" fill="#18234C" fill-rule="nonzero">
            <g id="icn_marketing_automation" transform="translate(910.000000, 3865.000000)">
                <path d="M94.5252558,45.8963043 L91.3346512,45.8963043 L91.3346512,41.4197826 C91.3346512,34.1956522 85.4037674,28.3680435 78.169814,28.3680435 L56.6715581,28.3680435 L56.6715581,17.631087 C59.4980698,15.9978261 61.3975814,12.9465217 61.3975814,9.44565217 C61.3975814,4.22782609 57.1554186,0 51.9335581,0 C46.7045116,0 42.4407907,4.23021739 42.4407907,9.44565217 C42.4407907,12.9465217 44.3211395,15.9978261 47.1476512,17.631087 L47.1476512,28.3680435 L25.6829302,28.3680435 C18.4465814,28.3680435 12.6330698,34.1956522 12.6330698,41.4197826 L12.6330698,45.8963043 L9.32509302,45.8963043 C5.25060465,45.8963043 1.92106977,49.2608696 1.92106977,53.3284783 L1.92106977,69.2378261 C1.92106977,73.3030435 5.25060465,76.638913 9.32509302,76.638913 L12.6330698,76.638913 L12.6330698,81.1513043 C12.6330698,88.3754348 18.4465814,94.1647826 25.6829302,94.1647826 L31.8246047,94.1647826 L31.8246047,101.061304 C31.8246047,105.128913 35.1613256,108.426522 39.235814,108.426522 L64.6169302,108.426522 C68.6914186,108.426522 71.9946047,105.128913 71.9946047,101.061304 L71.9946047,94.1671739 L78.169814,94.1671739 C85.4061628,94.1671739 91.3346512,88.3754348 91.3346512,81.1513043 L91.3346512,76.6413043 L94.5252558,76.6413043 C98.5997442,76.6413043 101.89814,73.3078261 101.89814,69.2402174 L101.89814,53.3308696 C101.89814,49.2632609 98.6045349,45.8963043 94.5252558,45.8963043 Z M23.1893721,50.8654348 C23.1893721,46.0852174 27.0722326,42.2136957 31.8581395,42.2136957 C36.6440465,42.2136957 40.5221163,46.0852174 40.5221163,50.8654348 C40.5221163,55.6456522 36.6440465,59.5171739 31.8581395,59.5171739 C27.0722326,59.5171739 23.1893721,55.6456522 23.1893721,50.8654348 Z M63.7306512,82.4354348 L40.122093,82.4354348 C36.2104884,82.4354348 33.0390465,79.2884783 33.0390465,75.3786957 C33.0390465,71.4736957 36.2104884,68.3267391 40.122093,68.3267391 L63.7330465,68.3267391 C67.6446512,68.3267391 70.816093,71.4736957 70.816093,75.3786957 C70.816093,79.2836957 67.6422558,82.4354348 63.7306512,82.4354348 Z M71.9946047,59.5171739 C67.2086977,59.5171739 63.3282326,55.6456522 63.3282326,50.8654348 C63.3282326,46.0852174 67.2086977,42.2136957 71.9946047,42.2136957 C76.782907,42.2136957 80.6633721,46.0852174 80.6633721,50.8654348 C80.6633721,55.6456522 76.782907,59.5171739 71.9946047,59.5171739 Z" id="Shape"></path>
            </g>
        </g>
    </g>
</svg>