<?xml version="1.0" encoding="UTF-8"?>
<svg width="110px" height="110px" viewBox="0 0 110 110" version="1.1" xmlns="http://www.w3.org/2000/svg" xmlns:xlink="http://www.w3.org/1999/xlink">
    <!-- Generator: Sketch 59.1 (86144) - https://sketch.com -->
    <title>icn_landing_pages</title>
    <desc>Created with Sketch.</desc>
    <g id="Page-1" stroke="none" stroke-width="1" fill="none" fill-rule="evenodd">
        <g id="What-We-Do" transform="translate(-665.000000, -2860.000000)" fill="#18234C" fill-rule="nonzero">
            <g id="Group-9" transform="translate(106.000000, 2835.000000)">
                <g id="icn_landing_pages" transform="translate(559.000000, 25.000000)">
                    <path d="M0,98.2695312 C0,104.737578 5.30059814,110 11.8155671,110 L98.1844329,110 C104.699402,110 110,104.737578 110,98.2695312 L110,33 L0,33 L0,98.2695312 Z M64.6679687,87.3905817 L45.3320312,87.3905817 C41.7720033,87.3905817 38.8867188,84.5252445 38.8867188,80.9916898 C38.8867188,77.4573019 41.7720033,74.5927978 45.3320312,74.5927978 L64.6679687,74.5927978 C68.2279967,74.5927978 71.1132812,77.458135 71.1132812,80.9916898 C71.1132812,84.5260776 68.2279967,87.3905817 64.6679687,87.3905817 Z M35.6640625,45.7977839 L74.3359375,45.7977839 C76.1159515,45.7977839 77.5585937,47.230036 77.5585937,48.9972299 C77.5585937,50.7644239 76.1159515,52.1966759 74.3359375,52.1966759 L35.6640625,52.1966759 C33.8840485,52.1966759 32.4414062,50.7644239 32.4414062,48.9972299 C32.4414062,47.230036 33.8840485,45.7977839 35.6640625,45.7977839 Z M22.7734375,58.5955679 L87.2265625,58.5955679 C89.0065765,58.5955679 90.4492188,60.0278199 90.4492188,61.7950139 C90.4492188,63.5622078 89.0065765,64.9944598 87.2265625,64.9944598 L22.7734375,64.9944598 C20.9934235,64.9944598 19.5507813,63.5622078 19.5507813,61.7950139 C19.5507813,60.0278199 20.9934235,58.5955679 22.7734375,58.5955679 Z" id="Shape"></path>
                    <path d="M98.1844329,0 L11.8155671,0 C5.30059814,0 0,5.30139463 0,11.8173425 L0,26 L110,26 L110,11.8173425 C110,5.30139463 104.699402,0 98.1844329,0 Z M67.890625,19.553719 C66.110611,19.553719 64.6679687,18.11086 64.6679687,16.3305785 C64.6679687,14.5502971 66.110611,13.107438 67.890625,13.107438 C69.670639,13.107438 71.1132812,14.5502971 71.1132812,16.3305785 C71.1132812,18.11086 69.670639,19.553719 67.890625,19.553719 Z M80.78125,19.553719 C79.001236,19.553719 77.5585938,18.11086 77.5585938,16.3305785 C77.5585938,14.5502971 79.001236,13.107438 80.78125,13.107438 C82.561264,13.107438 84.0039063,14.5502971 84.0039063,16.3305785 C84.0039063,18.11086 82.561264,19.553719 80.78125,19.553719 Z M93.671875,19.553719 C91.891861,19.553719 90.4492188,18.11086 90.4492188,16.3305785 C90.4492188,14.5502971 91.891861,13.107438 93.671875,13.107438 C95.451889,13.107438 96.8945313,14.5502971 96.8945313,16.3305785 C96.8945313,18.11086 95.451889,19.553719 93.671875,19.553719 Z" id="Shape"></path>
                </g>
            </g>
        </g>
    </g>
</svg>