<?xml version="1.0" encoding="UTF-8"?>
<svg width="159px" height="92px" viewBox="0 0 159 92" version="1.1" xmlns="http://www.w3.org/2000/svg" xmlns:xlink="http://www.w3.org/1999/xlink">
    <!-- Generator: Sketch 59.1 (86144) - https://sketch.com -->
    <title>icn_cro</title>
    <desc>Created with Sketch.</desc>
    <g id="Page-1" stroke="none" stroke-width="1" fill="none" fill-rule="evenodd">
        <g id="What-We-Do" transform="translate(-391.000000, -2877.000000)" fill="#18234C" fill-rule="nonzero">
            <g id="Group-9" transform="translate(106.000000, 2835.000000)">
                <g id="Group-6">
                    <g id="icn_cro" transform="translate(285.000000, 42.000000)">
                        <path d="M0,80 L20.6810743,80 C21.0265771,72.4536403 22.9059309,65.3236487 26,58.9320209 L6.84035063,47 C2.44609969,57.0658889 0,68.2372854 0,80 L0,80 Z" id="Path"></path>
                        <path d="M91.103796,1 L87,32.7637991 C94.9364871,35.1187269 102.097813,39.3638152 107.998532,45 L132,21.2837266 C120.812736,10.7857554 106.71373,3.54500157 91.103796,1 Z" id="Path"></path>
                        <path d="M11,39.7219686 L31.2857432,52 C35.7476832,46.0082604 41.4454629,41.001185 48,37.3608449 L32.685072,16 C23.9655533,22.3468335 16.5714189,30.4189467 11,39.7219686 Z" id="Path"></path>
                        <path d="M138.932213,28 L114,51.5778317 C120.312183,59.8371339 124.239805,69.9780351 124.767972,81 L159,81 C159,60.7140996 151.429397,42.1780327 138.932213,28 L138.932213,28 Z" id="Path"></path>
                        <path d="M78.9015909,30.5558251 L83,0.0711895608 C81.9077706,0.0281594263 80.8113992,0 79.7086553,0 C65.292056,0 51.7519803,3.71925905 40,10.236426 L56.5239521,33 C61.8509599,31.2401941 67.5482042,30.2849884 73.4707129,30.2849884 C75.3040524,30.2849884 77.1154071,30.3773766 78.9015909,30.5558251 L78.9015909,30.5558251 Z" id="Path"></path>
                        <path d="M65,77.6347365 C65,85.5685798 71.4917425,92 79.5,92 C87.5082575,92 94,85.5685798 94,77.6347365 C94,69.7008931 79.5,33 79.5,33 C79.5,33 65,69.7012053 65,77.6347365 Z" id="Path"></path>
                    </g>
                </g>
            </g>
        </g>
    </g>
</svg>