<?xml version="1.0" encoding="UTF-8"?>
<svg width="90px" height="85px" viewBox="0 0 90 85" version="1.1" xmlns="http://www.w3.org/2000/svg" xmlns:xlink="http://www.w3.org/1999/xlink">
    <!-- Generator: Sketch 59.1 (86144) - https://sketch.com -->
    <title>icn_int_seo</title>
    <desc>Created with Sketch.</desc>
    <defs>
        <polygon id="path-1" points="0 0 89.0666667 0 89.0666667 84.8 0 84.8"></polygon>
    </defs>
    <g id="Page-1" stroke="none" stroke-width="1" fill="none" fill-rule="evenodd">
        <g id="Service---Local-SEO" transform="translate(-677.000000, -5591.000000)">
            <g id="icn_int_seo" transform="translate(677.000000, 5591.000000)">
                <g id="icn-int_seo">
                    <g id="Group-3" transform="translate(0.333333, 0.066667)">
                        <mask id="mask-2" fill="white">
                            <use xlink:href="#path-1"></use>
                        </mask>
                        <g id="Clip-2"></g>
                        <path d="M76.0533935,13.6248319 C75.409246,13.7350051 74.8808135,14.1756982 74.6609548,14.7632889 L70.5530676,25.5969926 C69.5540603,27.9840798 67.2706151,29.6366787 64.5937384,29.9671984 L54.0868045,29.9671984 C53.488943,30.0406473 52.9682249,30.3711671 52.6827943,30.8853089 C52.4012208,31.3994508 52.3935064,31.9870415 52.6596512,32.5011834 L55.9382466,40.5438312 C56.2506775,41.1314219 56.8909679,41.5353905 57.592973,41.5353905 L60.6632811,41.5353905 C61.3035715,41.5353905 61.8975759,41.8291859 62.2370069,42.3433277 C62.5725808,42.8574696 62.6034381,43.5185092 62.3180075,44.0693755 L52.0386467,64.1209084 C50.8699239,67.0588619 47.826616,68.9318073 44.5403062,68.7481852 C41.2501394,68.5278387 38.4845477,66.3243735 37.7208279,63.2762467 L34.0488011,48.5497546 C33.7363702,47.9621639 33.0960798,47.5949197 32.3940747,47.5949197 L30.7470627,47.5949197 C24.101157,47.5949197 18.7126891,42.453501 18.7126891,36.1369009 C18.7126891,29.8203008 24.101157,24.6788821 30.7470627,24.6788821 L45.9288878,24.6788821 C46.9510381,24.6788821 47.7803299,23.9076693 47.7803299,22.9161099 L47.7803299,18.8764238 C47.7803299,16.0119191 45.9481737,13.4044854 43.1517247,12.3394772 L42.098717,11.9355086 C41.4352836,11.6784376 40.9839946,11.0908469 40.9338513,10.4298074 C40.8837081,9.73204342 41.2462822,9.10772829 41.8672867,8.77720852 L51.9422174,3.81941192 C52.6557941,3.48889214 53.0530827,2.71767934 52.925796,1.98319095 C52.8023666,1.21197815 52.1775049,0.624387439 51.3867848,0.514214181 C49.1534828,0.183694408 46.8931806,-0.000143771589 44.6328783,-0.000143771589 C23.6190106,-0.0366521081 5.43630639,13.9186272 1.00441688,33.4560183 C-3.42361545,53.0301338 7.11031862,72.8613202 26.2727443,81.0508657 C45.4390271,89.2771356 68.0189063,83.621575 80.4428541,67.4628305 C92.8706592,51.3408105 91.7636511,29.1225368 77.7852633,14.1756982 C77.349403,13.7350051 76.6936839,13.5146586 76.0533935,13.6248319 Z" id="Fill-1" fill="#18234C" mask="url(#mask-2)"></path>
                    </g>
                </g>
            </g>
        </g>
    </g>
</svg>