<?xml version="1.0" encoding="UTF-8"?>
<svg width="76px" height="96px" viewBox="0 0 76 96" version="1.1" xmlns="http://www.w3.org/2000/svg" xmlns:xlink="http://www.w3.org/1999/xlink">
    <!-- Generator: Sketch 59.1 (86144) - https://sketch.com -->
    <title>icn_ent_seo</title>
    <desc>Created with Sketch.</desc>
    <g id="Page-1" stroke="none" stroke-width="1" fill="none" fill-rule="evenodd">
        <g id="Service---Local-SEO" transform="translate(-1113.000000, -5583.000000)" fill="#18234C">
            <g id="icn_ent_seo" transform="translate(1113.000000, 5583.000000)">
                <g id="Group-11" transform="translate(0.666667, 0.266667)">
                    <path d="M63.2421833,53.2561288 C63.2421833,50.8188375 62.9578376,48.3858523 62.3805298,46.0131536 C61.9884774,44.2648492 60.6830723,42.8610383 58.9640736,42.3442981 C57.2450748,41.8275579 55.3795949,42.2753994 54.0871147,43.5198821 C52.7903261,44.7643647 52.2690257,46.6074048 52.7213938,48.3427907 C54.7419713,56.7441251 51.3815226,65.5157901 44.2642646,70.4119035 C37.1513148,75.3123231 27.7549832,75.3252416 20.6248004,70.4463529 C13.4946175,65.5674641 10.1083192,56.8044115 12.1073553,48.4073832 C12.7363624,45.7332526 11.0862959,43.0591221 8.41086176,42.4218091 C5.7354276,41.7931086 3.05999343,43.4509834 2.42667809,46.1208078 C0.2596195,55.2929464 2.40513676,64.951682 8.25145586,72.3453731 C14.097775,79.7347581 23.0072723,84.0538449 32.4380701,84.0581511 C38.6118175,84.0624573 44.6477004,82.2108049 49.7486892,78.7314208 C50.1407416,78.4644384 50.6706585,78.5075001 51.0110116,78.8433812 L66.120106,93.9494198 C67.3695036,95.2412703 69.2177504,95.7580106 70.9582905,95.3058629 C72.6945224,94.849409 74.0516266,93.492966 74.5039947,91.753274 C74.9606711,90.0178881 74.4393707,88.1662357 73.1468904,86.9217531 L58.037796,71.8200206 C57.6974429,71.4798333 57.6457437,70.9458684 57.9171645,70.5540071 C61.3939365,65.4555037 63.2507998,59.426868 63.2421833,53.2561288" id="Fill-1"></path>
                    <path d="M63.4666667,5.98251863 C63.4666667,3.32730762 61.7310867,0.991585425 59.1964525,0.244672411 C56.6618183,-0.506558019 53.9424566,0.512352219 52.5118919,2.74877384 C51.0856232,4.98087805 51.2961267,7.89081662 53.0231147,9.89409776 C53.3796819,10.3128871 53.336722,10.9432299 52.9200109,11.3058929 L44.4311345,18.6066438 C44.0401994,18.9477197 43.4516487,18.9218152 43.0864896,18.5548348 L36.0496578,11.4915418 C35.6716106,11.1072917 35.6716106,10.4899012 36.0496578,10.1013337 C38.2878686,7.73970705 38.2277248,4.00945939 35.9121861,1.72122877 C33.6009434,-0.571319263 29.884912,-0.571319263 27.5693733,1.72122877 C25.2538346,4.00945939 25.1936908,7.73970705 27.4361976,10.1013337 C27.8142447,10.4899012 27.8142447,11.1072917 27.4361976,11.4915418 L20.3692939,18.5591522 C19.9998387,18.9261326 19.4155841,18.9477197 19.024649,18.6066438 L10.5486605,11.3058929 C10.3424529,11.1331962 10.2178692,10.8871035 10.2006853,10.6237411 C10.1835013,10.3603787 10.2694211,10.0926989 10.4455567,9.89409776 C12.1424728,7.92103853 12.3744563,5.06722638 11.0126274,2.843757 C9.65079854,0.624605042 7.01306061,-0.450431608 4.49131441,0.184228583 C1.9781602,0.823206191 0.160956382,3.02508849 0.0105967284,5.63280791 C-0.144058916,8.23620992 1.40679351,10.6410108 3.83402793,11.5692553 C4.13904323,11.6858255 4.37102669,11.9535053 4.44405852,12.2729941 L9.25127146,33.2340501 C9.87848601,35.9453875 12.2799445,37.8666667 15.0508581,37.8666667 L48.3963334,37.8666667 C51.171543,37.8752726 53.5815934,35.9497049 54.19592,33.2340501 L59.0074289,12.2729941 C59.0804608,11.9491879 59.3081482,11.6771907 59.6174595,11.5606204 C61.9287022,10.6841849 63.4623707,8.46503298 63.4666667,5.98251863" id="Fill-3"></path>
                </g>
            </g>
        </g>
    </g>
</svg>