<?xml version="1.0" encoding="UTF-8"?>
<svg width="58px" height="87px" viewBox="0 0 58 87" version="1.1" xmlns="http://www.w3.org/2000/svg" xmlns:xlink="http://www.w3.org/1999/xlink">
    <title>Group 3</title>
    <defs>
        <polygon id="path-1" points="0 0 56.8 0 56.8 85.6 0 85.6"></polygon>
    </defs>
    <g id="Page-1" stroke="none" stroke-width="1" fill="none" fill-rule="evenodd">
        <g id="Service---SEO-(1)" transform="translate(-690.000000, -12253.000000)">
            <g id="Group-24" transform="translate(119.000000, 12207.000000)">
                <g id="icn_mob_seo" transform="translate(540.000000, 28.000000)">
                    <g id="Group-3" transform="translate(31.200000, 18.400000)">
                        <mask id="mask-2" fill="white">
                            <use xlink:href="#path-1"></use>
                        </mask>
                        <g id="Clip-2"></g>
                        <path d="M46.15,0 L10.65,0 C4.76765,0 0,4.80364366 0,10.7304028 L0,74.8695972 C0,80.7963563 4.76765,85.6 10.65,85.6 L46.15,85.6 C52.03235,85.6 56.8,80.7963563 56.8,74.8695972 L56.8,10.7304028 C56.8,4.80364366 52.03235,0 46.15,0 L46.15,0 Z M28.4,80.2347986 C26.4404,80.2347986 24.85,78.6323918 24.85,76.6579977 C24.85,74.6836035 26.4404,73.0811967 28.4,73.0811967 C30.3596,73.0811967 31.95,74.6836035 31.95,76.6579977 C31.95,78.6323918 30.3596,80.2347986 28.4,80.2347986 L28.4,80.2347986 Z M49.7,64.1391944 C49.7,66.1135885 48.1096,67.7159953 46.15,67.7159953 L10.65,67.7159953 C8.6904,67.7159953 7.1,66.1135885 7.1,64.1391944 L7.1,12.5188033 C7.1,10.5444092 8.6904,8.94200234 10.65,8.94200234 L46.15,8.94200234 C48.1096,8.94200234 49.7,10.5444092 49.7,12.5188033 L49.7,64.1391944 Z" id="Fill-1" fill="#18234C" mask="url(#mask-2)"></path>
                    </g>
                </g>
            </g>
        </g>
    </g>
</svg>