<?xml version="1.0" encoding="UTF-8"?>
<svg width="106px" height="82px" viewBox="0 0 106 82" version="1.1" xmlns="http://www.w3.org/2000/svg" xmlns:xlink="http://www.w3.org/1999/xlink">
    <!-- Generator: Sketch 59.1 (86144) - https://sketch.com -->
    <title>icn_service_youtube</title>
    <desc>Created with Sketch.</desc>
    <g id="Page-1" stroke="none" stroke-width="1" fill="none" fill-rule="evenodd">
        <g id="Service---Local-SEO" transform="translate(-1089.000000, -10359.000000)">
            <g id="Group-24" transform="translate(119.000000, 10310.000000)">
                <g id="icn_service_youtube" transform="translate(970.000000, 49.000000)">
                    <g id="icn-vid_seo">
                        <g id="Clip-2-+-Fill-1-Mask" fill="#18234C">
                            <path d="M103.209753,8.74297474 C102.712328,5.75774264 100.383038,3.45226881 97.4702312,3.06247736 C67.9547409,-1.02082579 38.0422671,-1.02082579 8.52677689,3.06247736 C5.61396964,3.45226881 3.28946336,5.75298909 2.78725522,8.73822119 C-0.929085072,30.0721729 -0.929085072,51.9195084 2.78725522,73.2582136 C3.28946336,76.2434457 5.61396964,78.5489196 8.52677689,78.938711 C23.2725647,80.9779858 38.1331429,82 53.0080699,82 C67.8829969,82 82.7387922,80.9779858 97.479797,78.938711 C100.392604,78.5489196 102.721894,76.2481993 103.219319,73.2582136 C106.930876,51.924262 106.926093,30.0769264 103.209753,8.74297474 M37,54.558436 L37,27.4351451 C37.0758499,25.8322134 37.9528647,24.3839506 39.3134227,23.5965456 C40.6739808,22.8138275 42.3331979,22.7997667 43.7127184,23.563737 L69.6249492,37.123039 C71.075579,37.8354531 72,39.3446461 72,40.999134 C72,42.6536219 71.075579,44.158128 69.6249492,44.875229 L43.7127184,58.434531 C42.3331979,59.1985013 40.6739808,59.1891275 39.3134227,58.4017224 C37.9481241,57.6143174 37.0758499,56.1613677 37,54.558436" id="Fill-1"></path>
                        </g>
                        <g id="Group-3" transform="translate(8.466667, 3.000000)"></g>
                    </g>
                </g>
            </g>
        </g>
    </g>
</svg>