<?xml version="1.0" encoding="UTF-8"?>
<svg width="100px" height="100px" viewBox="0 0 100 100" version="1.1" xmlns="http://www.w3.org/2000/svg" xmlns:xlink="http://www.w3.org/1999/xlink">
    <!-- Generator: Sketch 59.1 (86144) - https://sketch.com -->
    <title>icn_reseller</title>
    <desc>Created with Sketch.</desc>
    <g id="Page-1" stroke="none" stroke-width="1" fill="none" fill-rule="evenodd">
        <g id="Service---Local-SEO" transform="translate(-247.000000, -10944.000000)" fill="#18234C">
            <g id="Group-24" transform="translate(119.000000, 10310.000000)">
                <g id="icn_reseller" transform="translate(128.000000, 634.000000)">
                    <g id="Group-3">
                        <g id="Fill-1">
                            <path d="M96.1921143,53.6669957 L46.6980967,4.14342232 C44.5461829,1.98722955 41.6152763,0.769260378 38.5681664,0.777822619 L11.8844352,0.777822619 C8.83732524,0.777822619 5.90641864,1.98722955 3.75020101,4.1477261 C1.5982872,6.2996151 0.384607816,9.23048791 0.388900236,12.2818665 L0.419038437,38.9738976 C0.410430782,42.0209724 1.61980634,44.9475414 3.78463163,47.0951267 L53.2743453,96.5842698 C57.7675414,101.064503 65.0367062,101.064503 69.5255984,96.5842698 L96.1921143,69.9223651 C100.676703,65.4292209 100.676703,58.1601399 96.1921143,53.6669957 L96.1921143,53.6669957 Z M26.4227649,15.1782974 C32.6073651,15.1869166 37.6127167,20.2051218 37.6084156,26.3810432 C37.6084156,32.5698759 32.5944537,37.5837773 26.4098534,37.5880811 C20.2252531,37.5880811 15.2069901,32.5827873 15.1983825,26.3982583 C15.1983825,23.4200439 16.3776312,20.5666391 18.4822029,18.4577879 C20.5867746,16.3575443 23.4445162,15.1740053 26.4227649,15.1782974 L26.4227649,15.1782974 Z"></path>
                        </g>
                    </g>
                </g>
            </g>
        </g>
    </g>
</svg>