<?xml version="1.0" encoding="UTF-8"?>
<svg width="125px" height="110px" viewBox="0 0 125 110" version="1.1" xmlns="http://www.w3.org/2000/svg" xmlns:xlink="http://www.w3.org/1999/xlink">
    <!-- Generator: Sketch 59.1 (86144) - https://sketch.com -->
    <title>icn_ecommerce</title>
    <desc>Created with Sketch.</desc>
    <g id="Page-1" stroke="none" stroke-width="1" fill="none" fill-rule="evenodd">
        <g id="What-We-Do" transform="translate(-1148.000000, -1914.000000)" fill="#18234C" fill-rule="nonzero">
            <g id="icn_ecommerce" transform="translate(1148.000000, 1914.000000)">
                <path d="M40.5142614,73.3334925 L106.655967,73.3334925 C108.29385,73.3334925 109.730573,72.248782 110.173889,70.6732784 L124.818551,19.3395472 C125.133162,18.2328752 124.917701,17.0440858 124.224604,16.1245647 C123.530553,15.207908 122.451342,14.6665075 121.299676,14.6665075 L32.0626677,14.6665075 L29.4456768,2.87219106 C29.0738638,1.19260853 27.5866121,0 25.8705524,0 L3.66092723,0 C1.63788371,0 0,1.64043371 0,3.66662688 C0,5.69377509 1.63788371,7.33325377 3.66092723,7.33325377 L22.9322771,7.33325377 L36.1526097,66.9159406 C32.2628745,68.609846 29.5314797,72.4874948 29.5314797,77.0001193 C29.5314797,83.0653313 34.4584776,88 40.5142614,88 L106.655967,88 C108.679964,88 110.316894,86.3605213 110.316894,84.3333731 C110.316894,82.3071799 108.679964,80.6667462 106.655967,80.6667462 L40.5142614,80.6667462 C38.4978912,80.6667462 36.8533341,79.0234482 36.8533341,77.0001193 C36.8533341,74.9767905 38.4978912,73.3334925 40.5142614,73.3334925 Z" id="Path"></path>
                <path d="M36.96,99 C36.96,105.066233 41.8945081,110 47.9604774,110 C54.0254919,110 58.96,105.066233 58.96,99 C58.96,92.9347222 54.0254919,88 47.9604774,88 C41.8945081,88 36.96,92.9347222 36.96,99 Z" id="Path"></path>
                <path d="M88,99 C88,105.066233 92.9347222,110 99,110 C105.066233,110 110,105.066233 110,99 C110,92.9347222 105.066233,88 99,88 C92.9347222,88 88,92.9347222 88,99 Z" id="Path"></path>
            </g>
        </g>
    </g>
</svg>