<?xml version="1.0" encoding="UTF-8"?>
<svg width="110px" height="110px" viewBox="0 0 110 110" version="1.1" xmlns="http://www.w3.org/2000/svg" xmlns:xlink="http://www.w3.org/1999/xlink">
    <!-- Generator: Sketch 59.1 (86144) - https://sketch.com -->
    <title>icn_seo</title>
    <desc>Created with Sketch.</desc>
    <g id="Page-1" stroke="none" stroke-width="1" fill="none" fill-rule="evenodd">
        <g id="What-We-Do" transform="translate(-160.000000, -1916.000000)" fill="#18234C" fill-rule="nonzero">
            <g id="Group" transform="translate(106.000000, 1888.000000)">
                <g id="icn_seo" transform="translate(109.000000, 83.000000) scale(-1, 1) translate(-109.000000, -83.000000) translate(54.000000, 28.000000)">
                    <path d="M47.8066016,74.8526367 C42.971543,71.8160352 38.4005273,67.0159961 35.4150586,61.9742578 C34.9589453,61.2038281 33.9027734,61.0656836 33.2694141,61.6988281 L3.10835938,91.8598828 C-1.03597656,96.0042188 -1.03597656,102.74752 3.10835938,106.891855 C5.18052734,108.964023 7.90238281,110 10.6242383,110 C13.3460938,110 16.0681641,108.963809 18.140332,106.891641 L48.0519531,76.9798047 C48.675,76.3569727 48.5527539,75.3209961 47.8066016,74.8526367 Z" id="Path"></path>
                    <path d="M99.0296484,10.9705664 C84.4028711,-3.65664063 60.6022656,-3.65707031 45.9752734,10.9705664 C31.3480664,25.5977734 31.3480664,49.3979492 45.9752734,64.0249414 C53.2887695,71.3384375 62.8957227,74.995293 72.5024609,74.995293 C82.1094141,74.995293 91.7161523,71.3384375 99.0298633,64.0249414 C113.656641,49.3977344 113.656641,25.5977734 99.0296484,10.9705664 Z M89.2033398,25.1981641 C88.5710547,25.8304492 87.7421875,26.1469141 86.9135352,26.1469141 C86.0848828,26.1469141 85.2558008,25.8308789 84.6237305,25.1981641 C81.438457,22.0128906 77.203457,20.2584766 72.6988281,20.2584766 C68.1939844,20.2584766 63.9589844,22.0128906 60.7737109,25.1981641 C59.5091406,26.4627344 57.4586719,26.4631641 56.1938867,25.1981641 C54.9291016,23.9335938 54.9291016,21.8833398 56.1938867,20.6183398 C60.6024805,16.2095313 66.4640625,13.781582 72.6988281,13.781582 C78.9333789,13.781582 84.7949609,16.2095313 89.2035547,20.6183398 C90.4679102,21.883125 90.4679102,23.9335938 89.2033398,25.1981641 Z" id="Shape"></path>
                </g>
            </g>
        </g>
    </g>
</svg>