<?xml version="1.0" encoding="UTF-8"?>
<svg width="100px" height="110px" viewBox="0 0 100 110" version="1.1" xmlns="http://www.w3.org/2000/svg" xmlns:xlink="http://www.w3.org/1999/xlink">
    <!-- Generator: Sketch 59.1 (86144) - https://sketch.com -->
    <title>icn_social_media</title>
    <desc>Created with Sketch.</desc>
    <g id="Page-1" stroke="none" stroke-width="1" fill="none" fill-rule="evenodd">
        <g id="What-We-Do" transform="translate(-663.000000, -1906.000000)" fill="#18234C" fill-rule="nonzero">
            <g id="Group" transform="translate(106.000000, 1888.000000)">
                <g id="Group-6">
                    <g id="icn_social_media" transform="translate(557.000000, 18.000000)">
                        <path d="M82.9477647,77.7989882 C78.7514588,77.7989882 74.9690118,79.4277647 72.0978824,82.0506824 L32.7567059,59.1085647 C33.0603059,57.8662118 33.2536471,56.5687294 33.2536471,55.2435529 C33.2536471,53.9183765 33.0603059,52.6208941 32.7567059,51.3785412 L71.6837647,28.6572 C74.6377176,31.4180706 78.5858118,33.1296706 82.9477647,33.1296706 C92.0860471,33.1296706 99.5124706,25.7032471 99.5124706,16.5649647 C99.5124706,7.42668235 92.0860471,0.000258823529 82.9477647,0.000258823529 C73.8094824,0.000258823529 66.3830588,7.42668235 66.3830588,16.5649647 C66.3830588,17.8901412 66.5764,19.1876235 66.88,20.4299765 L27.9529412,43.1510588 C24.9989882,40.3901882 21.0508941,38.6785882 16.6889412,38.6785882 C7.55065882,38.6785882 0.124235294,46.1050118 0.124235294,55.2432941 C0.124235294,64.3815765 7.55065882,71.808 16.6889412,71.808 C21.0508941,71.808 24.9989882,70.0964 27.9529412,67.3355294 L67.2941176,90.2776471 C67.0179529,91.4371765 66.8523059,92.6518353 66.8523059,93.8941882 C66.8523059,102.784 74.0579529,109.989647 82.9477647,109.989647 C91.8375765,109.989647 99.0432235,102.784 99.0432235,93.8941882 C99.0432235,85.0043765 91.8375765,77.7989882 82.9477647,77.7989882 Z" id="Path"></path>
                    </g>
                </g>
            </g>
        </g>
    </g>
</svg>