<?xml version="1.0" encoding="UTF-8"?>
<svg width="110px" height="110px" viewBox="0 0 110 110" version="1.1" xmlns="http://www.w3.org/2000/svg" xmlns:xlink="http://www.w3.org/1999/xlink">
    <!-- Generator: Sketch 59.1 (86144) - https://sketch.com -->
    <title>icn_content</title>
    <desc>Created with Sketch.</desc>
    <g id="Page-1" stroke="none" stroke-width="1" fill="none" fill-rule="evenodd">
        <g id="What-We-Do" transform="translate(-915.000000, -1910.000000)" fill="#18234C" fill-rule="nonzero">
            <g id="Group" transform="translate(106.000000, 1888.000000)">
                <g id="Group-6">
                    <g id="Group-5">
                        <g id="icn_content" transform="translate(809.000000, 22.000000)">
                            <path d="M83.9997896,18.4557556 C83.9997896,15.9198889 83.0133013,13.5326444 81.2255017,11.7390444 L72.2987086,2.78328889 C70.5357396,1.01438889 68.0331148,0 65.5424844,0 L65,0 L65,19 L84,19 L83.9997896,18.4557556 L83.9997896,18.4557556 Z" id="Path"></path>
                            <path d="M59.0149803,66.5020898 C59.6334875,64.6295117 60.7128052,62.8860547 62.1202268,61.4730273 L84,39.7409375 L84,25.78125 L61.2933962,25.78125 C59.5072439,25.78125 58.1668218,24.3398633 58.1668218,22.5585938 L58.1668218,0 L9.6944703,0 C4.34872395,0 0,4.33683594 0,9.66796875 L0,100.332031 C0,105.663164 4.34872395,110 9.6944703,110 L74.2193566,110 C79.565103,110 84,105.663164 84,100.332031 L84,76.2800586 L80.4488078,79.7356055 C79.009933,81.1580859 77.3248186,82.193418 75.4249179,82.8261328 L65.1498565,86.2470898 L63.5845227,86.332168 C60.9967454,86.332168 58.5479222,85.0764062 57.0269676,82.9741602 C55.518508,80.8813672 55.1083242,78.1685352 55.9286918,75.7169531 L59.0149803,66.5020898 Z M16.1574505,58.0078125 L48.3674358,58.0078125 C50.1535881,58.0078125 51.5989259,59.4491992 51.5989259,61.2304688 C51.5989259,63.0117383 50.1535881,64.453125 48.3674358,64.453125 L16.1574505,64.453125 C14.3712982,64.453125 12.9259604,63.0117383 12.9259604,61.2304688 C12.9259604,59.4491992 14.3712982,58.0078125 16.1574505,58.0078125 Z M12.9259604,48.3398438 C12.9259604,46.5585742 14.3712982,45.1171875 16.1574505,45.1171875 L48.3674358,45.1171875 C50.1535881,45.1171875 51.5989259,46.5585742 51.5989259,48.3398438 C51.5989259,50.1211133 50.1535881,51.5625 48.3674358,51.5625 L16.1574505,51.5625 C14.3712982,51.5625 12.9259604,50.1211133 12.9259604,48.3398438 Z M12.9259604,74.1210938 C12.9259604,72.3398242 14.3712982,70.8984375 16.1574505,70.8984375 L48.3674358,70.8984375 C50.1535881,70.8984375 51.5989259,72.3398242 51.5989259,74.1210938 C51.5989259,75.9023633 50.1535881,77.34375 48.3674358,77.34375 L16.1574505,77.34375 C14.3712982,77.34375 12.9259604,75.9023633 12.9259604,74.1210938 Z M61.2933962,90.234375 C63.0795485,90.234375 64.5248863,91.6757617 64.5248863,93.4570313 C64.5248863,95.2383008 63.0797639,96.6796875 61.2933962,96.6796875 L41.9044556,96.6796875 C40.1183033,96.6796875 38.6729655,95.2383008 38.6729655,93.4570313 C38.6729655,91.6757617 40.1183033,90.234375 41.9044556,90.234375 L61.2933962,90.234375 Z M16.1574505,38.671875 C14.3712982,38.671875 12.9259604,37.2304883 12.9259604,35.4492188 C12.9259604,33.6679492 14.3712982,32.2265625 16.1574505,32.2265625 L61.2933962,32.2265625 C63.0795485,32.2265625 64.5248863,33.6679492 64.5248863,35.4492188 C64.5248863,37.2304883 63.0795485,38.671875 61.2933962,38.671875 L16.1574505,38.671875 Z" id="Shape"></path>
                            <path d="M64.0179963,70 L61.0893765,78.782645 C60.6504201,80.0983257 61.902882,81.3498487 63.2190778,80.9103912 L72,77.9788797 L64.0179963,70 Z" id="Path"></path>
                            <path d="M89.6598109,42 L68,63.6590449 L77.3412854,73 C82.2367723,68.1038092 91.7622304,58.5773724 99,51.3398588 L89.6598109,42 Z" id="Path"></path>
                            <path d="M108.193268,33.7186748 C107.112447,32.6251976 105.52104,32 103.8335,32 C102.145961,32 100.554758,32.6251976 99.4677883,33.7217678 L95,38.2163035 L103.731424,47 C106.177362,44.5392123 107.867976,42.8384769 108.199622,42.5050519 C110.601286,40.085298 110.601081,36.1439962 108.193268,33.7186748 Z" id="Path"></path>
                            <g id="Group" transform="translate(108.000000, 43.000000)">
                                <path d="M0.6075,0.448 C0.608,0.448 0.608,0.4475 0.6085,0.447 C0.6275,0.428 0.636,0.4195 0.6515,0.404 C0.636,0.42 0.6275,0.4285 0.6075,0.448 Z" id="Path"></path>
                                <path d="M0.6515,0.404 C0.6755,0.38 0.7035,0.352 0.718,0.3375 C0.703,0.3525 0.6755,0.38 0.6515,0.404 Z" id="Path"></path>
                                <path d="M0.718,0.3375 C0.7665,0.289 0.7675,0.288 0.718,0.3375 L0.718,0.3375 Z" id="Path"></path>
                            </g>
                        </g>
                    </g>
                </g>
            </g>
        </g>
    </g>
</svg>