<?xml version="1.0" encoding="UTF-8"?>
<svg width="110px" height="110px" viewBox="0 0 110 110" version="1.1" xmlns="http://www.w3.org/2000/svg" xmlns:xlink="http://www.w3.org/1999/xlink">
    <!-- Generator: Sketch 59.1 (86144) - https://sketch.com -->
    <title>icn_ppc</title>
    <desc>Created with Sketch.</desc>
    <g id="Page-1" stroke="none" stroke-width="1" fill="none" fill-rule="evenodd">
        <g id="What-We-Do" transform="translate(-403.000000, -1914.000000)" fill="#18234C" fill-rule="nonzero">
            <g id="icn_ppc" transform="translate(403.000000, 1914.000000)">
                <path d="M72.6209655,0 L10.3744236,0 C4.6569635,0 0,4.62952941 0,10.3235294 L0,67.6764706 C0,73.3704706 4.6569635,78 10.3744236,78 L42.1155491,78 L41.2902061,77.1787059 C36.0568857,71.9710588 36.047664,63.5057647 41.2717627,58.2981176 C43.803122,55.7791765 47.1644353,54.3889412 50.7470696,54.3889412 C54.3343148,54.3889412 57.7140714,55.7791765 60.2546525,58.3072941 L64.9992223,63.0285882 C66.534637,62.1705882 68.2222099,61.6291765 69.9881673,61.4227059 C70.2878729,61.0464706 70.6152436,60.6885882 70.9656686,60.3398824 C73.1235487,58.1925882 75.8854508,56.8665882 78.8778957,56.5224706 C79.1822121,56.1462353 79.5141937,55.7837647 79.8600078,55.4396471 C80.7914005,54.5082353 81.8703405,53.7924706 83,53.1822353 L83,10.3235294 C82.9953891,4.62952941 78.3384256,0 72.6209655,0 Z M36.8868396,47.0294118 C36.8868396,48.9289412 35.3375924,50.4705882 33.4286984,50.4705882 C31.5198045,50.4705882 29.9705572,48.9289412 29.9705572,47.0294118 L29.9705572,43.5882353 L25.3597022,43.5882353 L25.3597022,47.0294118 C25.3597022,48.9289412 23.810455,50.4705882 21.901561,50.4705882 C19.9926671,50.4705882 18.4434198,48.9289412 18.4434198,47.0294118 L18.4434198,32.1176471 C18.4434198,27.0568235 22.5793567,22.9411765 27.6651297,22.9411765 C32.7509027,22.9411765 36.8868396,27.0568235 36.8868396,32.1176471 L36.8868396,47.0294118 Z M53.024832,50.4705882 L49.5666907,50.4705882 C47.6577968,50.4705882 46.1085495,48.9289412 46.1085495,47.0294118 L46.1085495,26.3823529 C46.1085495,24.4828235 47.6577968,22.9411765 49.5666907,22.9411765 L53.024832,22.9411765 C60.651186,22.9411765 66.8573968,29.1169412 66.8573968,36.7058824 C66.8573968,44.2948235 60.651186,50.4705882 53.024832,50.4705882 Z" id="Shape"></path>
                <path d="M27.5,30 C26.12,30 25,31.0453333 25,32.3333333 L25,37 L30,37 L30,32.3333333 C30,31.0453333 28.88,30 27.5,30 Z" id="Path"></path>
                <path d="M53,30 L53,44 C56.8593333,44 60,40.8593333 60,37 C60,33.1406667 56.8593333,30 53,30 Z" id="Path"></path>
                <path d="M85.7526256,62.2044863 C84.1179477,63.8203099 84.1271571,66.4420405 85.7710445,68.0669673 L87.2583712,69.5371392 C87.53005,69.8056845 87.5346547,70.2471913 87.2629759,70.5157366 C86.991297,70.7842819 86.5492433,70.7842819 86.2729597,70.511185 L82.8056006,67.0838183 C81.1617133,65.4588915 78.5093908,65.4543399 76.8747129,67.0656119 C75.240035,68.6814355 75.2492445,71.3031661 76.8931318,72.9280929 L80.3604909,76.3554595 C80.6321697,76.6240049 80.6367745,77.0655116 80.3650956,77.3340569 C80.0934167,77.6026022 79.651363,77.6026022 79.3750794,77.3295053 L73.9230832,71.9403923 C72.2791959,70.3154655 69.6268734,70.3109139 67.9921955,71.9221858 C66.3575176,73.5380094 66.3667271,76.1597401 68.0106144,77.7846669 L73.4626106,83.1737798 C73.7342895,83.4423252 73.7388942,83.8838319 73.4672153,84.1523772 C73.1955365,84.4209225 72.7534827,84.4209225 72.4771991,84.1478256 L53.1511621,65.0446945 C51.5072747,63.4197677 48.8549522,63.4152161 47.2202743,65.026488 C45.5855964,66.6423116 45.5948059,69.2640423 47.2386933,70.8889691 L70.4971667,93.87918 C67.4488378,93.4103636 62.3191725,93.2100925 59.1695396,96.318846 C56.2133052,99.2409833 56.2915855,101.261901 57.2079261,102.172224 C59.7082926,104.643751 61.6330683,100.738465 73.0251616,106.118475 C84.4172549,111.503036 91.73877,111.056978 96.7441077,106.1913 L103.641988,99.3729801 C103.678826,99.3365672 103.60515,99.4093931 103.641988,99.3729801 C110.654986,92.4408694 112.662647,82.9644055 105.585183,75.9731238 C105.571368,75.959469 105.562159,75.9503657 105.548345,75.9367109 L91.6743039,62.2226928 C90.039626,60.597766 87.3873035,60.5932144 85.7526256,62.2044863 L85.7526256,62.2044863 Z" id="Path"></path>
            </g>
        </g>
    </g>
</svg>