<svg width="109" height="84" viewBox="0 0 109 84" fill="none" xmlns="http://www.w3.org/2000/svg">
<g filter="url(#filter0_d_262_287)">
<path d="M89.9237 49.1916C88.2306 49.5492 86.5376 49.9963 84.8446 50.1751C72.1468 51.6058 60.3802 42.0385 58.7718 28.8947C56.9942 14.9461 65.7979 2.33878 78.8343 0.282265C91.4474 -1.68484 103.045 6.80947 105.754 20.4898C109.986 42.3961 103.383 60.1001 86.7916 73.7804C84.4213 75.6581 82.1357 77.5357 79.0883 77.804C77.8185 77.8934 76.4641 77.804 75.1943 77.6252C73.8399 77.3569 73.4166 76.284 74.1785 75.0322C74.771 74.138 75.5329 73.2439 76.3794 72.5286C83.3208 66.4484 87.4688 58.58 89.839 49.5492C89.9237 49.4598 89.9237 49.281 89.9237 49.1916Z" fill="#FFFF00"/>
<path d="M33.4611 49.3704C30.9215 49.6387 28.2973 50.2646 25.7577 50.2646C13.2293 50.354 2.98644 40.0714 2.05527 26.6593C1.20876 13.8732 10.1818 2.15997 22.3717 0.282281C34.9001 -1.68482 46.4974 6.80949 49.2063 20.1321C53.6928 42.4856 46.836 60.4577 29.6517 74.2275C27.5354 75.9263 25.4191 77.5358 22.6256 77.804C21.2712 77.8934 19.9168 77.804 18.5624 77.5358C17.3772 77.3569 16.954 76.3734 17.6312 75.3004C18.3084 74.2275 19.0703 73.2439 20.0014 72.5286C26.9429 66.4485 31.0908 58.5801 33.4611 49.5493C33.4611 49.4598 33.4611 49.281 33.4611 49.3704Z" fill="#FFFF00"/>
</g>
<defs>
<filter id="filter0_d_262_287" x="0" y="0" width="109" height="83.8391" filterUnits="userSpaceOnUse" color-interpolation-filters="sRGB">
<feFlood flood-opacity="0" result="BackgroundImageFix"/>
<feColorMatrix in="SourceAlpha" type="matrix" values="0 0 0 0 0 0 0 0 0 0 0 0 0 0 0 0 0 0 127 0" result="hardAlpha"/>
<feOffset dy="4"/>
<feGaussianBlur stdDeviation="1"/>
<feComposite in2="hardAlpha" operator="out"/>
<feColorMatrix type="matrix" values="0 0 0 0 0 0 0 0 0 0 0 0 0 0 0 0 0 0 0.4 0"/>
<feBlend mode="normal" in2="BackgroundImageFix" result="effect1_dropShadow_262_287"/>
<feBlend mode="normal" in="SourceGraphic" in2="effect1_dropShadow_262_287" result="shape"/>
</filter>
</defs>
</svg>
