<svg height="110" viewBox="0 0 96 110" width="96" xmlns="http://www.w3.org/2000/svg"><g fill="#18234c"><path d="m19.2 32.3015873 29.2363636 13.0952381 29.2363637-13.0952381z"/><path d="m19.2 84.6825397h6.1090909v6.1111111h-6.1090909z"/><path d="m96 3.13852814c0-1.73436362-1.4316668-3.13852814-3.2-3.13852814h-89.6c-1.76833323 0-3.2 1.40416452-3.2 3.13852814v22.17893216h96zm-28.8 15.90187586h-51.2c-1.7683332 0-3.2-1.4041645-3.2-3.1385281s1.4316668-3.1385281 3.2-3.1385281h51.2c1.7683332 0 3.2 1.4041645 3.2 3.1385281s-1.4316668 3.1385281-3.2 3.1385281z"/><path d="m77.6727273 65.4761905-29.2363637-13.0952381-29.2363636 13.0952381z"/><path d="m96 64.6031746v-32.3015873h-2.5628329l-37.5826216 16.1507937 37.5826216 16.1507936z"/><path d="m0 64.6031746h2.56283285l37.58262165-16.1507936-37.58262165-16.1507937h-2.56283285z"/><path d="m0 106.816627c0 1.759145 1.43166677 3.183373 3.2 3.183373h89.6c1.7683332 0 3.2-1.424228 3.2-3.183373v-35.2293254h-96zm64-25.679207c0-1.759145 1.4316668-3.1833728 3.2-3.1833728h12.8c1.7683332 0 3.2 1.4242278 3.2 3.1833728v12.7334912c0 1.7591449-1.4316668 3.1833728-3.2 3.1833728h-12.8c-1.7683332 0-3.2-1.4242279-3.2-3.1833728zm-25.6 0c0-1.759145 1.4316668-3.1833728 3.2-3.1833728h12.8c1.7683332 0 3.2 1.4242278 3.2 3.1833728v12.7334912c0 1.7591449-1.4316668 3.1833728-3.2 3.1833728h-12.8c-1.7683332 0-3.2-1.4242279-3.2-3.1833728zm-25.6 0c0-1.759145 1.4316668-3.1833728 3.2-3.1833728h12.8c1.7683332 0 3.2 1.4242278 3.2 3.1833728v12.7334912c0 1.7591449-1.4316668 3.1833728-3.2 3.1833728h-12.8c-1.7683332 0-3.2-1.4242279-3.2-3.1833728z"/><path d="m70.6909091 84.6825397h6.1090909v6.1111111h-6.1090909z"/><path d="m45.3818182 84.6825397h6.1090909v6.1111111h-6.1090909z"/></g></svg>